<svg clip-rule="evenodd" fill-rule="evenodd" height="512" image-rendering="optimizeQuality" shape-rendering="geometricPrecision" text-rendering="geometricPrecision" viewBox="0 0 173.397 173.397" width="512" xmlns="http://www.w3.org/2000/svg"><g id="Layer_x0020_1"><circle cx="86.699" cy="86.699" fill="#0f9d58" r="84.667"/><path d="m36.4297 54.0051h100.538c1.8585 0 3.4423 1.2358 3.9703 2.9262l-54.2375 30.8137-54.2422-30.8089c.5265-1.6929 2.1115-2.931 3.9717-2.931zm104.695 5.5941v55.6355c0 1.1336-.46 2.1649-1.2023 2.9168l-37.9682-36.2985zm-3.4585 59.7335c-.2274.0389-.4609.0594-.699.0594h-100.538c-.2381 0-.4715-.0205-.6989-.0594l37.902-36.2357 13.0676 7.4222 13.0638-7.422 37.9022 36.2355zm-104.192-1.1812c-.7422-.7519-1.2022-1.7832-1.2022-2.9168v-55.63l39.1702 22.2482z" fill="#fff"/></g></svg>