<svg id="Capa_1" enable-background="new 0 0 512 512" viewBox="0 0 512 512" xmlns="http://www.w3.org/2000/svg"><g><g><g><path d="m370.261 501.977-43.084 2.523h-292.652c-5.565 0-10.073-4.518-10.073-10.083v-424.417c0-5.575 4.508-10.083 10.073-10.083h23.188l149.297 15.937 149.288-15.937 11.15 5.994z" fill="#8b818e"/><path d="m389.568 70v424.417c0 5.565-4.518 10.083-10.083 10.083h-54.852c5.565 0 10.083-4.518 10.083-10.083v-432.196l21.582-2.304h23.188c5.565 0 10.082 4.508 10.082 10.083z" fill="#756e78"/><path d="m57.715 467.244v-407.329h277.003l16.961 3.741.282 401.553-17.243 6.024h-273.014c-2.203 0-3.989-1.786-3.989-3.989z" fill="#f5f8f9"/><path d="m356.298 59.917v407.323c0 2.204-1.785 3.989-3.989 3.989h-17.593v-411.312z" fill="#e8edf2"/><path d="m226.843 51.829h-39.669v-23.16c0-10.954 8.88-19.834 19.834-19.834 10.954 0 19.834 8.88 19.834 19.834v23.16z" fill="#756e78"/><path d="m279.556 79.32-25.491 1.758h-121.039c-1.652 0-2.992-1.34-2.992-2.992v-16.543c0-12.587 10.204-22.792 22.792-22.792h81.71l23.09 2.518c12.587 0 22.792 10.204 22.792 22.792l2.131 12.267c-.001 1.652-1.341 2.992-2.993 2.992z" fill="#8b818e"/><path d="m283.985 61.543v16.545c0 1.646-1.346 2.992-2.992 2.992h-24.74v-19.537c0-12.586-12.39-22.789-24.986-22.789h29.919c12.596 0 22.799 10.203 22.799 22.789z" fill="#756e78"/></g><path d="m258.026 149.25h-33.282c-1.088 0-1.97-.882-1.97-1.97v-33.282c0-1.088-.882-1.97-1.97-1.97h-27.585c-1.088 0-1.97.882-1.97 1.97v33.282c0 1.088-.882 1.97-1.97 1.97h-33.282c-1.088 0-1.97.882-1.97 1.97v27.585c0 1.088.882 1.97 1.97 1.97h33.282c1.088 0 1.97.882 1.97 1.97v33.282c0 1.088.882 1.97 1.97 1.97h27.585c1.088 0 1.97-.882 1.97-1.97v-33.282c0-1.088.882-1.97 1.97-1.97h33.282c1.088 0 1.97-.882 1.97-1.97v-27.585c0-1.088-.882-1.97-1.97-1.97z" fill="#fe99a0"/><path d="m322.179 398.89v34.312c0 2.209-1.791 4-4 4h-221.093c-2.209 0-4-1.791-4-4v-63.108c0-2.209 1.791-4 4-4h218.727z" fill="#e8edf2"/><g><g><g><path d="m388.541 502.778 16.802-12.14c48.481-29.592 75.657-76.84 75.657-133.639-6.526-3.455-7.094-9.241-12.499-14.075-13.268-11.865-22.872-27.497-27.338-45.062l-1.038-4.084c-.265-1.043-1.204-1.773-2.28-1.773h-100.097c-1.076 0-2.015.73-2.28 1.773l-1.038 4.084c-6.188 24.339-22.224 44.984-44.231 57.008-.642.351-1.045 1.017-1.045 1.749v.814c0 56.799 29.759 107.612 78.241 137.204l18.695 8.143c.752.458 1.698.458 2.451-.002z" fill="#9be69d"/></g></g><g><path d="m468.501 342.923c-1.221 55.629-31.453 110.851-78.941 139.836l-19.36 11.817c-.752.459-2.053.518-2.806.059l19.176 11.704c.753.459 1.699.459 2.451 0l20.372-12.434c47.853-29.208 77.045-81.226 77.045-137.289 0-.731-.403-1.397-1.045-1.748-6.123-3.346-11.776-7.369-16.892-11.945z" fill="#75d89f"/></g><g><g><path d="m388.551 423.626 2.143 2.143c6.249 6.249 16.381 6.249 22.63 0 6.249-6.249 6.249-16.381 0-22.63l-24.772-24.772c-.767-.767-2.011-.767-2.778 0l-24.772 24.772c-6.249 6.249-6.249 16.381 0 22.63 6.249 6.249 16.381 6.249 22.63 0l2.143-2.143c.765-.767 2.009-.767 2.776 0z" fill="#f5f8f9"/></g></g></g></g><g><path d="m136.913 497h-102.85c-1.434 0-2.601-1.171-2.601-2.61v-316.9c0-4.142-3.357-7.5-7.5-7.5s-7.5 3.358-7.5 7.5v316.9c0 9.71 7.896 17.61 17.601 17.61h102.85c4.143 0 7.5-3.358 7.5-7.5s-3.358-7.5-7.5-7.5z"/><path d="m158.316 187.558h26.148v26.148c0 5.172 4.208 9.38 9.381 9.38h26.33c5.172 0 9.38-4.208 9.38-9.38v-26.148h26.148c5.173 0 9.381-4.208 9.381-9.381v-26.33c0-5.172-4.208-9.38-9.381-9.38h-26.148v-26.148c0-5.173-4.208-9.381-9.38-9.381h-26.33c-5.173 0-9.381 4.208-9.381 9.381v26.148h-26.148c-5.172 0-9.38 4.208-9.38 9.38v26.33c0 5.173 4.208 9.381 9.38 9.381zm5.62-30.091h26.147c5.173 0 9.381-4.208 9.381-9.381v-26.148h15.091v26.148c0 5.173 4.208 9.381 9.381 9.381h26.148v15.091h-26.148c-5.173 0-9.381 4.208-9.381 9.381v26.148h-15.091v-26.148c0-5.173-4.208-9.381-9.381-9.381h-26.147z"/><path d="m103.585 284.504h-10.5c-4.143 0-7.5 3.358-7.5 7.5s3.357 7.5 7.5 7.5h10.5c4.143 0 7.5-3.358 7.5-7.5s-3.357-7.5-7.5-7.5z"/><path d="m103.585 320.582h-10.5c-4.143 0-7.5 3.358-7.5 7.5s3.357 7.5 7.5 7.5h10.5c4.143 0 7.5-3.358 7.5-7.5s-3.357-7.5-7.5-7.5z"/><path d="m289.153 284.504h-152.241c-4.143 0-7.5 3.358-7.5 7.5s3.357 7.5 7.5 7.5h152.241c4.143 0 7.5-3.358 7.5-7.5s-3.358-7.5-7.5-7.5z"/><path d="m103.585 248.426h-10.5c-4.143 0-7.5 3.358-7.5 7.5s3.357 7.5 7.5 7.5h10.5c4.143 0 7.5-3.358 7.5-7.5s-3.357-7.5-7.5-7.5z"/><path d="m318.702 248.426h-181.79c-4.143 0-7.5 3.358-7.5 7.5s3.357 7.5 7.5 7.5h181.79c4.143 0 7.5-3.358 7.5-7.5s-3.358-7.5-7.5-7.5z"/><path d="m261.467 320.582h-124.555c-4.143 0-7.5 3.358-7.5 7.5s3.357 7.5 7.5 7.5h124.556c4.143 0 7.5-3.358 7.5-7.5s-3.358-7.5-7.501-7.5z"/><path d="m491.547 347.242c-10.21-5.405-19.009-12.753-26.152-21.835-7.152-9.104-12.218-19.386-15.059-30.566l-1.48-5.82c-.846-3.324-3.839-5.651-7.269-5.651h-44.025v-214.545c0-9.709-7.899-17.608-17.608-17.608h-89.667c-3.886-12.285-15.391-21.217-28.945-21.217h-26.944v-2.612c0-15.102-12.286-27.388-27.388-27.388s-27.388 12.286-27.388 27.388v2.612h-26.94c-13.554 0-25.059 8.933-28.944 21.22h-89.675c-9.705 0-17.601 7.9-17.601 17.61v73.66c0 4.142 3.357 7.5 7.5 7.5s7.5-3.358 7.5-7.5v-73.66c0-1.439 1.167-2.61 2.601-2.61h15.752v404.923c0 4.142 3.357 7.5 7.5 7.5h282.141c7.42 6.812 15.459 12.955 24.006 18.356h-191.549c-4.143 0-7.5 3.358-7.5 7.5s3.357 7.5 7.5 7.5h218.15c1.37-.007 2.737-.394 3.901-1.098l20.45-12.48c10.203-6.227 19.768-13.556 28.429-21.784 3.003-2.853 3.124-7.6.271-10.603s-7.6-3.124-10.604-.272c-7.894 7.5-16.611 14.18-25.911 19.855l-16.542 10.095-16.534-10.096c-22.526-13.742-41.264-33.178-54.188-56.209-12.209-21.743-18.979-46.264-19.688-71.182 22.134-13.122 38.3-34.637 44.677-59.687l.043-.169h91.388l.042.167c3.359 13.219 9.349 25.377 17.804 36.14 7.489 9.521 16.514 17.429 26.875 23.554-.819 29.311-9.883 57.561-26.337 81.956-2.316 3.434-1.41 8.095 2.023 10.412 3.435 2.315 8.096 1.411 10.412-2.024 18.947-28.09 28.962-60.838 28.962-94.704.002-2.778-1.534-5.328-3.989-6.628zm-108.985-278.417v214.545h-18.356v-217.153h15.748c1.438 0 2.608 1.17 2.608 2.608zm-187.939-41.437c0-6.831 5.557-12.388 12.388-12.388s12.388 5.557 12.388 12.388v2.612h-24.775v-2.612zm107.917 402.314h-201.955v-56.107h185.18c2.295 19.502 7.972 38.525 16.775 56.107zm35.998-146.332c-3.43 0-6.423 2.327-7.269 5.651l-1.48 5.819c-5.717 22.458-20.738 41.558-41.212 52.403-2.454 1.3-3.989 3.85-3.989 6.627 0 1.576.032 3.151.076 4.724h-191.579c-4.143 0-7.5 3.358-7.5 7.5v71.107c0 4.142 3.357 7.5 7.5 7.5h217.947c4.221 6.637 8.885 12.971 13.97 18.942h-260.187v-397.423h57.518v13.72c0 4.142 3.357 7.5 7.5 7.5h94.13c4.143 0 7.5-3.358 7.5-7.5s-3.357-7.5-7.5-7.5h-86.63v-12.09c0-8.464 6.886-15.35 15.35-15.35h108.66c8.464 0 15.351 6.886 15.351 15.35v12.09h-17.73c-4.143 0-7.5 3.358-7.5 7.5s3.357 7.5 7.5 7.5h25.23c4.143 0 7.5-3.358 7.5-7.5v-13.723h57.513v217.153z"/><path d="m357.233 431.317c8.976 8.975 23.276 9.46 32.827 1.455 4.504 3.774 10.062 5.662 15.62 5.661 6.231 0 12.464-2.372 17.208-7.116 9.487-9.488 9.487-24.926 0-34.415l-26.064-26.064c-3.729-3.728-9.796-3.727-13.528.001l-26.062 26.062c-9.488 9.489-9.488 24.928-.001 34.416zm10.607-23.809 22.22-22.221 22.221 22.221c3.64 3.64 3.64 9.562 0 13.202-3.639 3.64-9.562 3.639-13.201 0l-2.254-2.254c-.001 0-.001-.001-.002-.002-1.864-1.863-4.313-2.795-6.763-2.795s-4.899.932-6.766 2.797l-2.253 2.253c-3.641 3.64-9.563 3.64-13.202 0-3.639-3.639-3.639-9.561 0-13.201z"/><path d="m333.587 373.029v9.078c0 4.142 3.357 7.5 7.5 7.5s7.5-3.358 7.5-7.5v-9.078c0-4.142-3.357-7.5-7.5-7.5s-7.5 3.358-7.5 7.5z"/><path d="m439.034 365.529c-4.143 0-7.5 3.358-7.5 7.5v9.078c0 4.142 3.357 7.5 7.5 7.5s7.5-3.358 7.5-7.5v-9.078c0-4.142-3.358-7.5-7.5-7.5z"/><path d="m416.03 352.846v-9.078c0-4.142-3.357-7.5-7.5-7.5s-7.5 3.358-7.5 7.5v9.078c0 4.142 3.357 7.5 7.5 7.5s7.5-3.358 7.5-7.5z"/><path d="m379.091 352.846v-9.078c0-4.142-3.357-7.5-7.5-7.5s-7.5 3.358-7.5 7.5v9.078c0 4.142 3.357 7.5 7.5 7.5s7.5-3.358 7.5-7.5z"/></g></g><g/><g/><g/><g/><g/><g/><g/><g/><g/><g/><g/><g/><g/><g/><g/></svg>