<svg id="Capa_1" enable-background="new 0 0 512.008 512.008" viewBox="0 0 512.008 512.008" xmlns="http://www.w3.org/2000/svg"><g><g><path d="m252.539 19.478c5.664 13.574 1.626 34.858-11.948 40.523-13.574 5.664-31.543-6.437-37.208-20.011-5.664-13.574 3.122-23.481 16.696-29.145s26.796-4.941 32.46 8.633z" fill="#efe2dd"/><path d="m240.592 60.004c-6.236 2.599-13.407 1.449-19.89-1.87 7.972-8.733 9.709-24.698 5.147-35.65-2.106-5.034-5.25-8.301-9.061-10.13 1.058-.534 2.157-1.038 3.288-1.51 13.582-5.661 26.804-4.941 32.465 8.63 5.66 13.582 1.622 34.859-11.949 40.53z" fill="#cdbfbb"/><g><g><g><g><g><path d="m147.59 391.7-13.707 80.551h45.493l11.266-80.551z" fill="#fdb0a0"/><path d="m183.211 444.834 7.431-53.134h-43.052l-9.041 53.134z" fill="#f79e8d"/><g><path d="m198.812 480.228-19.436-7.977h-45.493l-6.098 17.572c-2.493 7.185 2.842 14.684 10.448 14.684h66.805c1.54 0 2.788-1.248 2.788-2.788v-8.048c.001-5.894-3.561-11.205-9.014-13.443z" fill="#6e4189"/></g></g></g><g><g><path d="m106.73 391.7-13.706 80.551h45.492l11.266-80.551z" fill="#ffcec0"/><path d="m142.351 444.834 7.431-53.134h-43.052l-9.041 53.134z" fill="#fdb0a0"/><g><path d="m157.952 480.228-19.436-7.977h-45.492l-6.098 17.572c-2.493 7.185 2.842 14.684 10.448 14.684h66.805c1.54 0 2.788-1.248 2.788-2.788v-8.048c0-5.894-3.561-11.205-9.015-13.443z" fill="#804ea0"/></g></g></g></g><path d="m175.212 264.869h-113.803l15.598 33.4c5.98 12.804 8.883 26.829 8.478 40.954l-2.041 71.226c-.083 2.893 2.24 5.284 5.135 5.284h110.711c2.78 0 5.055-2.211 5.135-4.99l1.903-66.395c.498-17.371-4.008-34.52-12.981-49.402z" fill="#fb4a59"/><path d="m193.344 294.944-18.133-30.071h-14.064c-.001-.001-.001-.003-.002-.004h-99.736l14.987 32.091h65.818c3.947 0 7.566 2.251 9.264 5.814 6.163 12.931 9.194 27.174 8.785 41.576l-1.901 66.389c-.082 2.784-2.363 4.993-5.137 4.993h46.068c2.774 0 5.055-2.209 5.127-4.993l1.911-66.389c.493-17.372-4.007-34.519-12.987-49.406z" fill="#f82f40"/></g><g><path d="m213.045 96.323c-1.506 33.337 23.085 37.008 35.914 39.246 12.83 2.238 37.211 7.109 47.08-24.769 11.563-37.349 11.027-59.182-31.154-66.54s-50.076 13.004-51.84 52.063z" fill="#ffcec0"/><path d="m296.043 110.804c-9.872 31.875-34.255 27.004-47.082 24.766-4.366-.756-10.094-1.684-15.701-3.892 12.081.081 25.845-4.397 32.672-26.44 9.892-31.966 10.921-52.578-15.448-62.46 4.286.06 9.065.554 14.4 1.482 42.18 7.361 42.715 29.193 31.159 66.544z" fill="#fdb0a0"/><path d="m292.142 54.611c-5.954-4.734-14.784-8.176-27.256-10.351-37.376-6.519-47.827 8.739-50.952 39.472l1.202 2.449c-.001 0 77.006 18.501 77.006-31.57z" fill="#f8f3f1"/><path d="m292.145 54.61c0 50.074-77.012 31.571-77.012 31.571l-1.202-2.455c.175-1.757.38-3.462.606-5.116 22.479 1.603 55.17-1.562 56.084-33.205 9.504 2.168 16.521 5.229 21.524 9.205z" fill="#efe2dd"/></g><g><g><g><g><path d="m280.168 399.318h136.54v28.831h-136.54z" fill="#804ea0" transform="matrix(-1 0 0 -1 696.876 827.467)"/></g><g><path d="m319.685 399.318h57.506v28.831h-57.506z" fill="#8dcafc"/><path d="m348.788 399.318h28.403v28.831h-28.403z" fill="#64b9fc"/></g><g><g><g><path d="m284.981 468.173h-28.91v-230.794c0-11.956 9.727-21.682 21.682-21.682h89.116c24.009 0 45.345 16.105 51.886 39.164 10.308 36.34 22.595 105.547 22.595 228.872 0 7.983-6.471 14.455-14.455 14.455-7.983 0-14.455-6.472-14.455-14.455 0-120.002-11.691-186.408-21.498-220.984-3.03-10.682-12.929-18.143-24.073-18.143h-81.888z" fill="#c3e0ff"/></g></g><g><path d="m441.353 483.735c0 7.983-6.472 14.455-14.455 14.455s-14.455-6.473-14.455-14.455c0-120.008-11.692-186.407-21.503-220.988-.683-2.426-6.807-21.035-22.725-34.129-8.754-7.201-25.776-12.925-34.048-12.925h32.701c24.01 0 45.348 16.109 51.883 39.164 10.315 36.348 22.602 105.552 22.602 228.878z" fill="#8dcafc"/></g></g></g><g><g><path d="m249.33 463.611v23.25c0 9.746 7.901 17.647 17.647 17.647h7.098c9.746 0 17.647-7.901 17.647-17.647v-23.25c0-4.28-3.47-7.75-7.75-7.75h-26.892c-4.28 0-7.75 3.47-7.75 7.75z" fill="#804ea0"/></g><g><path d="m291.721 463.411v23.248c0 9.746-7.903 17.649-17.649 17.649h-7.092c-2.296 0-4.496-.439-6.507-1.243 6.529-2.588 11.142-8.963 11.142-16.406v-23.248c0-4.277-3.473-7.75-7.75-7.75h20.106c4.284 0 7.75 3.473 7.75 7.75z" fill="#6e4189"/></g></g></g></g><g><g><g><g><g><path d="m178.721 267.955h-117.312c-3.465 0-5.937-3.361-4.903-6.669l21.921-70.156c17.176-54.97 68.084-92.399 125.675-92.399 24.39 0 40.778 25.01 31.041 47.372l-51.713 118.765c-.815 1.875-2.665 3.087-4.709 3.087z" fill="#a176bd"/><path d="m238.003 132.578c0 4.469-.904 9.051-2.856 13.53l-51.718 118.765c-.812 1.87-2.661 3.082-4.705 3.082h-58.776c2.044 0 3.894-1.212 4.716-3.082l51.708-118.765c1.952-4.479 2.856-9.062 2.856-13.541 0-11.126-5.609-21.544-14.558-27.801 12.534-3.935 25.797-6.031 39.431-6.031 19.508.001 33.902 15.997 33.902 33.843z" fill="#915eb2"/></g></g></g></g></g><g><path d="m188.756 97.609c10.379 7.123 31.513 25.861 29.972 59.602-.133 2.921 2.2 5.364 5.124 5.364h12.711c12.586 0 21.903-11.798 18.877-24.015-5.476-22.105-17.363-53.493-42.157-67.316-1.916-1.068-4.311-.743-5.924.742l-19.15 17.625c-2.421 2.228-2.165 6.137.547 7.998z" fill="#fb4a59"/></g><g><g><path d="m290.78 202.854h27.032c13.422 0 24.303 10.881 24.303 24.303v11.992c0 5.607-4.545 10.152-10.152 10.152h-31.032c-5.607 0-10.152-4.545-10.152-10.152z" fill="#ffcec0"/><path d="m342.119 227.16v11.989c0 5.604-4.548 10.152-10.152 10.152h-25.674c5.614 0 10.152-4.548 10.152-10.152v-11.989c0-13.421-10.883-24.303-24.303-24.303h25.674c13.42-.001 24.303 10.882 24.303 24.303z" fill="#fdb0a0"/></g><g><g><path d="m224.291 199.763c.217-11.465 1.282-28.597 2.693-38.417 2.29-15.931-10.442-30.023-26.524-29.373-12.436.503-22.691 9.833-24.458 22.154-2.198 15.322-3.695 39.239-3.147 57.758.652 22.048 18.479 39.343 40.584 39.373l77.869.109c5.858.008 10.544-4.865 10.308-10.718l-1.25-30.908c-.223-5.518-4.757-9.878-10.279-9.886z" fill="#915eb2"/></g><g><path d="m300.366 209.742c-.223-5.518-4.757-9.878-10.279-9.885l-54.17-.077v51.51l55.392.078c5.858.008 10.544-4.864 10.308-10.718z" fill="#804ea0"/></g><g><path d="m300.366 209.742c-.223-5.518-4.757-9.878-10.279-9.886l-18.104-.025v51.51l19.326.027c5.858.008 10.544-4.864 10.308-10.718z" fill="#f8f3f1"/></g></g></g><g><circle cx="424.694" cy="473.469" fill="#1c96f9" r="31.038"/><path d="m455.736 473.473c0 17.134-13.902 31.035-31.044 31.035-4.79 0-9.328-1.089-13.379-3.025 10.435-4.997 17.647-15.666 17.647-28.01 0-12.353-7.212-23.013-17.647-28.019 4.052-1.936 8.589-3.025 13.379-3.025 17.142-.001 31.044 13.901 31.044 31.044z" fill="#1576f7"/></g></g></g><path d="m448.379 443.103c-2.382-100.285-13.477-158.798-22.409-190.288-7.451-26.27-31.754-44.617-59.101-44.617h-23.539c-5.802-7.789-15.08-12.843-25.517-12.843h-17.709c-.041 0-.081.005-.122.006-2.827-1.892-6.224-2.999-9.885-3.004l-58.069-.083c.299-7.178.823-15.353 1.488-22.197h3.048c8.348 0 16.088-3.772 21.235-10.35 3.448-4.407 5.381-9.642 5.672-15.05 19.896-.082 33.244-10.698 39.734-31.66 7.146-23.081 10.145-41.333 1.552-55.382-6.555-10.718-18.815-17.315-38.582-20.764-1.29-.225-2.549-.418-3.793-.596.495-6.906-.496-13.875-2.92-19.685-3.632-8.702-10.092-14.232-18.682-15.99-6.953-1.426-14.89-.306-23.589 3.323-8.699 3.63-15.076 8.484-18.955 14.429-4.792 7.344-5.405 15.824-1.774 24.526 2.833 6.788 8.085 13.222 14.54 18.004-.265.733-.52 1.479-.763 2.245-2.885.14-5.712 1.274-7.959 3.342l-19.15 17.625c-2.655 2.443-4.098 5.842-4.063 9.419-6.628 1.214-13.177 2.901-19.565 5.064-3.923 1.328-6.027 5.585-4.699 9.509 1.059 3.126 3.976 5.097 7.103 5.097.797 0 1.609-.128 2.406-.398 8.009-2.711 16.3-4.591 24.676-5.619 4.735 3.891 10.339 9.62 14.753 17.362-1.185-.078-2.38-.096-3.582-.047-16.015.647-29.296 12.669-31.579 28.583-2.425 16.903-3.749 41.184-3.22 59.044.427 14.437 7.074 27.144 17.348 35.639l-5.534 12.709h-60.445c-4.142 0-7.5 3.357-7.5 7.5s3.358 7.5 7.5 7.5h56.11l14.086 23.363c8.248 13.68 12.365 29.35 11.907 45.315l-1.837 64.1h-105.985l1.972-68.795c.436-15.217-2.738-30.551-9.18-44.343l-9.172-19.641h9.92c4.142 0 7.5-3.357 7.5-7.5s-3.358-7.5-7.5-7.5h-19.927l20.962-67.087c8.674-27.761 26.956-51.717 51.477-67.457 3.486-2.237 4.498-6.877 2.26-10.363-2.238-3.485-6.876-4.496-10.363-2.26-27.48 17.639-47.969 44.489-57.692 75.605l-21.921 70.155c-1.194 3.821-.491 8.028 1.88 11.255 1.643 2.235 3.983 3.826 6.593 4.605l12.391 26.535c5.457 11.685 8.146 24.674 7.777 37.565l-2.042 71.226c-.099 3.442 1.169 6.699 3.569 9.169s5.619 3.83 9.063 3.83h5.178l-8.022 47.145-5.895 16.986c-1.965 5.663-1.064 11.96 2.411 16.844s9.128 7.8 15.123 7.8h107.665c5.673 0 10.288-4.615 10.288-10.288v-8.049c0-8.974-5.364-16.974-13.667-20.382l-14.049-5.766 6.194-44.29h5.485c6.886 0 12.435-5.392 12.632-12.274l1.903-66.396c.54-18.846-4.32-37.343-14.056-53.489l-11.83-19.621c.971-1.036 1.781-2.241 2.368-3.59l5.421-12.449c5.473 2.146 11.44 3.336 17.701 3.345l35.142.049v191.954c-4.064 2.742-6.741 7.388-6.741 12.649v23.25c0 13.866 11.281 25.146 25.146 25.146h7.099c13.866 0 25.146-11.28 25.146-25.146v-23.25c0-5.26-2.677-9.907-6.741-12.649v-15.113h111.781c.049 1.683.093 3.382.136 5.08-10.94 6.807-18.241 18.934-18.241 32.739 0 21.25 17.288 38.538 38.538 38.538s38.538-17.288 38.538-38.538c.002-12.323-5.82-23.306-14.851-30.365zm-310.58-19.87-5.806 41.518h-30.085l7.064-41.518zm-40.426 73.775c-1.597 0-2.502-.938-2.9-1.496s-.986-1.721-.462-3.229l4.349-12.531h35.524 3.154l18.067 7.415c2.65 1.088 4.362 3.641 4.362 6.505v3.337h-62.094zm102.953-3.337v3.337h-25.86v-3.337c0-5.206-1.814-10.076-4.951-13.92h8.382l18.067 7.415c2.65 1.088 4.362 3.641 4.362 6.505zm-27.474-28.92h-25.714l5.806-41.518h25.714zm161.764-237.593v11.991c0 1.462-1.189 2.651-2.652 2.651h-22.868c.019-.482.033-.966.013-1.454l-1.213-29.992h9.916c9.266.001 16.804 7.539 16.804 16.804zm-41.744-17.113 1.25 30.907c.042 1.039-.471 1.734-.78 2.056s-.982.86-2.019.86c-.001 0-.003 0-.004 0l-11.837-.017v-36.51l10.593.015c1.508.002 2.736 1.184 2.797 2.689zm-3.997-101.464c-5.801 18.74-16.624 21.839-28.055 21.064-3.032-10.551-7.304-22.012-13.296-32.662 14.285-.315 29.77-3.318 40.193-12.871 2.914-2.671 5.295-5.708 7.145-9.09.672 7.738-1.28 18.356-5.987 33.559zm-4.429-50.149c-.64 6.177-2.898 10.988-6.864 14.623-7.511 6.885-21.83 9.933-40.486 8.683-3.863-4.627-8.196-8.852-13.068-12.459 4.148-15.223 12.745-22.312 39.569-17.631 8.958 1.563 15.86 3.81 20.849 6.784zm-74.142-21.33c-3.313-7.941.947-14.446 12.663-19.335 5.788-2.415 10.905-3.269 14.803-2.473 3.653.748 6.146 2.995 7.847 7.071 1.539 3.689 2.138 8.338 1.786 12.951-12.818.384-22.346 4.401-29.016 12.307-3.591-3.007-6.508-6.748-8.083-10.521zm-14.877 56.06 15.729-14.478c12.016 7.293 27.644 23.898 37.003 61.68.877 3.542.084 7.23-2.175 10.118-2.284 2.92-5.718 4.594-9.421 4.594h-1.915c-.563-7.24-3.492-14.145-8.464-19.653-.895-.991-1.845-1.917-2.837-2.783-5.84-20.112-19.025-32.857-27.92-39.478zm-15.075 118.501c-.498-16.828.795-40.578 3.074-56.472 1.256-8.756 8.547-15.368 17.337-15.724.25-.011.498-.016.747-.016 5.164 0 10.063 2.17 13.54 6.021 3.64 4.032 5.284 9.429 4.511 14.806-1.514 10.536-2.557 28.133-2.769 39.342-.038 2.012.733 3.954 2.142 5.391 1.408 1.438 3.334 2.248 5.346 2.251l40.203.057v36.51l-51.032-.072c-18.028-.023-32.567-14.121-33.099-32.094zm97.129 47.186v189.312h-13.91v-189.332zm6.74 227.812c0 5.595-4.552 10.146-10.146 10.146h-7.099c-5.595 0-10.146-4.552-10.146-10.146v-23.25c0-.138.112-.25.25-.25h26.892c.138 0 .25.112.25.25v23.25zm8.26-79.844h19.705v13.832h-19.705zm34.704 13.832v-13.832h42.506v13.832zm57.506 0v-13.832h18.426c.23 4.549.437 9.161.623 13.832zm25.184-102.827c-.603-4.098-4.416-6.935-8.512-6.329-4.098.603-6.932 4.413-6.329 8.511 3.164 21.512 5.58 45.546 7.236 71.813h-109.789v-133.006c2.61-.166 5.107-.872 7.353-2.099.359.053.724.089 1.098.089h31.032c4.61 0 8.799-1.791 11.946-4.694h22.958c7.807 0 14.739 5.219 16.858 12.69 2.062 7.271 4.024 15.349 5.83 24.012.738 3.538 3.857 5.971 7.334 5.971.507 0 1.022-.053 1.539-.16 4.055-.845 6.657-4.817 5.812-8.873-1.878-9.007-3.925-17.433-6.083-25.043-3.94-13.894-16.807-23.597-31.289-23.597h-17.252v-9.948c0-1.342-.093-2.662-.255-3.961h17.508c20.671 0 39.041 13.862 44.67 33.711 8.471 29.862 18.944 84.901 21.647 178.978-2.734-.618-5.574-.955-8.492-.955-1.846 0-3.659.139-5.436.391-1.296-44.431-4.447-83.93-9.384-117.501zm14.819 179.185c-12.979 0-23.538-10.56-23.538-23.538s10.559-23.537 23.538-23.537 23.538 10.559 23.538 23.537-10.559 23.538-23.538 23.538z"/></g><g/><g/><g/><g/><g/><g/><g/><g/><g/><g/><g/><g/><g/><g/><g/></svg>