<svg id="Capa_1" enable-background="new 0 0 512 512" height="512" viewBox="0 0 512 512" width="512" xmlns="http://www.w3.org/2000/svg"><g><g><path d="m292.978 28.81-28.189-27.233c-.846-.817-1.916-1.406-3.085-1.541-3.086-.357-5.704 2.046-5.704 5.061v11.553c-63.932 0-124.039 24.897-169.246 70.104-37.51 37.511-61.023 85.282-67.946 136.983-.469 3.5 2.103 6.679 5.622 6.973l20.921 1.746c3.267.273 6.17-2.056 6.626-5.302 14.072-100.008 100.196-177.203 204.023-177.203v11.363c0 2.135 1.225 4.157 3.215 4.932 1.93.751 4.024.277 5.424-1.075l28.339-27.379c2.541-2.455 2.541-6.527 0-8.982z" fill="#b7e546"/></g><g><path d="m219.022 483.19 28.189 27.234c.846.817 1.916 1.406 3.085 1.541 3.087.357 5.704-2.047 5.704-5.062v-11.553c63.932 0 124.039-24.897 169.246-70.104 37.51-37.511 61.023-85.282 67.946-136.983.469-3.5-2.103-6.679-5.622-6.973l-20.921-1.746c-3.267-.273-6.17 2.056-6.626 5.302-14.072 100.008-100.196 177.203-204.023 177.203v-11.363c0-2.135-1.225-4.157-3.215-4.932-1.93-.751-4.024-.277-5.424 1.075l-28.339 27.379c-2.541 2.455-2.541 6.527 0 8.982z" fill="#abd641"/></g><g><path d="m401.796 215.068h-98.683c-3.414 0-6.181-2.767-6.181-6.181v-98.682c0-5.69-4.612-10.302-10.302-10.302h-61.26c-5.69 0-10.302 4.612-10.302 10.302v98.682c0 3.414-2.767 6.181-6.181 6.181h-98.683c-5.69 0-10.302 4.612-10.302 10.302v61.261c0 5.69 4.612 10.302 10.302 10.302h98.683c3.414 0 6.181 2.767 6.181 6.181v98.683c0 5.69 4.612 10.302 10.302 10.302h61.261c5.69 0 10.302-4.612 10.302-10.302v-98.683c0-3.414 2.767-6.181 6.181-6.181h98.683c5.69 0 10.302-4.612 10.302-10.302v-61.261c-.001-5.69-4.614-10.302-10.303-10.302z" fill="#e490d0"/></g><g><path d="m321.355 215.068c-14.676 26.824-34.831 53.857-59.86 78.886-14.92 14.92-30.552 28.1-46.427 39.43v68.412c0 5.69 4.612 10.302 10.302 10.302h61.261c5.69 0 10.302-4.612 10.302-10.302v-98.683c0-3.414 2.767-6.181 6.181-6.181h98.683c5.69 0 10.302-4.612 10.302-10.302v-61.261c0-5.69-4.612-10.302-10.302-10.302h-80.442z" fill="#df73c1"/></g><g><path d="m491.25 97.821h-20.939c-3.414 0-6.181-2.767-6.181-6.181v-20.939c0-3.414-2.767-6.181-6.181-6.181h-20.939c-3.414 0-6.181 2.767-6.181 6.181v20.939c0 3.414-2.767 6.181-6.181 6.181h-20.938c-3.414 0-6.181 2.767-6.181 6.181v20.939c0 3.414 2.767 6.181 6.181 6.181h20.939c3.414 0 6.181 2.767 6.181 6.181v20.939c0 3.414 2.767 6.181 6.181 6.181h20.939c3.414 0 6.181-2.767 6.181-6.181v-20.939c0-3.414 2.767-6.181 6.181-6.181h20.939c3.414 0 6.181-2.767 6.181-6.181v-20.939c-.001-3.414-2.768-6.181-6.182-6.181z" fill="#dd4fb1"/></g><g><path d="m108.29 380.878h-20.938c-3.414 0-6.181-2.767-6.181-6.181v-20.939c0-3.414-2.767-6.181-6.181-6.181h-20.939c-3.414 0-6.181 2.767-6.181 6.181v20.939c0 3.414-2.767 6.181-6.181 6.181h-20.939c-3.414 0-6.181 2.767-6.181 6.181v20.939c0 3.414 2.767 6.181 6.181 6.181h20.939c3.414 0 6.181 2.767 6.181 6.181v20.939c0 3.414 2.767 6.181 6.181 6.181h20.939c3.414 0 6.181-2.767 6.181-6.181v-20.939c0-3.414 2.767-6.181 6.181-6.181h20.939c3.414 0 6.181-2.767 6.181-6.181v-20.939c0-3.414-2.768-6.181-6.182-6.181z" fill="#dd4fb1"/></g><path d="m166.937 473.054h-13.087v-13.086c0-4.268-3.459-7.726-7.726-7.726s-7.726 3.459-7.726 7.726v13.086h-13.087c-4.268 0-7.726 3.459-7.726 7.727s3.459 7.726 7.726 7.726h13.087v13.086c0 4.268 3.459 7.726 7.726 7.726s7.726-3.459 7.726-7.726v-13.086h13.086c4.268 0 7.726-3.459 7.726-7.726s-3.458-7.727-7.725-7.727z" fill="#b7e546"/><path d="m386.689 23.493h-13.087v-13.087c0-4.268-3.459-7.726-7.726-7.726s-7.726 3.458-7.726 7.726v13.086h-13.086c-4.268 0-7.726 3.459-7.726 7.726s3.459 7.726 7.726 7.726h13.086v13.087c0 4.268 3.459 7.726 7.726 7.726s7.726-3.459 7.726-7.726v-13.085h13.087c4.268 0 7.726-3.459 7.726-7.726s-3.458-7.727-7.726-7.727z" fill="#abd641"/></g></svg>