<svg enable-background="new 0 0 512 512" viewBox="0 0 512 512" xmlns="http://www.w3.org/2000/svg"><g id="_x32_3_Arrow_Up"><g><path d="m422.548 234.11c-19.361 19.487-50.743 19.487-70.231 0l-96.425-96.425-.127.253-96.171 96.171c-19.361 19.361-50.743 19.487-70.104 0-19.108-18.859-19.706-50.526 0-70.231l131.35-131.477c19.36-19.36 50.743-19.36 70.231 0l131.477 131.479c19.361 19.36 19.361 50.869 0 70.23z" fill="#9ccaf2"/><path d="m422.548 479.444c-19.361 19.487-50.743 19.487-70.231 0l-96.425-96.425-.127.253-96.171 96.171c-19.361 19.361-50.743 19.487-70.104 0-19.108-18.859-19.706-50.526 0-70.231l131.35-131.477c19.36-19.361 50.743-19.361 70.231 0l131.476 131.477c19.362 19.362 19.362 50.87.001 70.232z" fill="#fff"/><g fill="#202329"><path d="m168.016 242.526 87.946-87.935 87.935 87.935c23.939 23.916 62.827 24.358 87.074-.012 24.01-24.01 24.02-63.044-.012-87.051l-131.495-131.495c-24.064-23.925-63.114-23.925-87.039.023l-131.356 131.472c-24.489 24.489-23.635 63.714-.023 87.039 23.943 24.088 62.866 24.128 86.97.024zm-70.113-70.229 131.355-131.472c14.683-14.671 38.643-14.66 53.396 0l131.472 131.472c14.72 14.72 14.723 38.673 0 53.396-.012.012-.023.012-.023.023-14.727 14.799-38.506 14.819-53.372-.023l-96.421-96.421c-2.22-2.22-5.255-3.371-8.359-3.371-3.576 0-6.676 1.501-8.928 3.941l-95.84 95.852c-14.563 14.563-38.341 15.011-53.337-.058-14.51-14.32-14.895-38.388.057-53.339z"/><path d="m81.046 487.833c23.645 23.812 62.576 24.417 86.97.023l87.946-87.935 87.935 87.935c24.21 24.21 63.127 24.104 87.074-.012 24.011-24.011 24.022-63.018-.012-87.051l-131.495-131.494c-24.065-23.925-63.114-23.925-87.039.023l-131.356 131.472c-24.489 24.489-23.635 63.714-.023 87.039zm16.857-70.205 131.355-131.472c14.683-14.671 38.643-14.648 53.396 0l131.472 131.472c14.692 14.692 14.752 38.643 0 53.396-.012.012-.023.023-.035.035-14.695 14.792-38.495 14.831-53.361-.035l-96.421-96.421c-2.22-2.22-5.255-3.371-8.359-3.371-3.576 0-6.676 1.501-8.928 3.941l-95.84 95.852c-14.71 14.71-38.484 14.892-53.337-.058-14.509-14.32-14.894-38.388.058-53.339z"/></g></g></g><g id="Layer_1"/></svg>